<?xml version="1.0" standalone="no"?>
<!DOCTYPE svg PUBLIC "-//W3C//DTD SVG 20010904//EN"
 "http://www.w3.org/TR/2001/REC-SVG-20010904/DTD/svg10.dtd">
<svg version="1.0" xmlns="http://www.w3.org/2000/svg"
 width="300.000000pt" height="300.000000pt" viewBox="0 0 300.000000 300.000000"
 preserveAspectRatio="xMidYMid meet">
<metadata>
Created by potrace 1.14, written by Peter Selinger 2001-2017
</metadata>
<g transform="translate(0.000000,300.000000) scale(0.100000,-0.100000)"
fill="#000000" stroke="none">
<path d="M0 2228 l0 -771 30 45 c16 25 41 57 56 73 21 23 24 33 19 66 l-7 39
54 2 c124 5 218 -9 218 -33 0 -5 7 -9 15 -9 8 0 15 -4 15 -9 0 -5 10 -13 22
-17 40 -12 133 -103 142 -137 3 -12 14 -56 25 -97 52 -190 68 -476 41 -731 -7
-66 -7 -104 0 -123 29 -77 -7 -152 -85 -176 -22 -6 -101 -13 -175 -15 -111 -4
-142 -1 -172 13 -21 9 -38 20 -38 24 0 3 -27 33 -59 66 -61 61 -68 75 -89 192
-7 41 -10 -31 -11 -287 l-1 -343 348 0 348 0 12 33 c7 18 12 49 12 67 0 19 5
61 11 94 6 34 13 70 15 82 2 11 17 38 34 59 17 21 33 50 36 64 3 14 17 55 32
91 15 36 27 74 26 85 0 11 -4 88 -7 170 -12 252 15 425 103 647 61 155 89 201
128 213 l32 9 0 76 c0 41 3 85 6 97 7 27 24 21 24 -9 0 -11 8 -22 20 -25 13
-3 20 -14 20 -29 0 -19 5 -24 27 -24 21 0 24 -3 15 -12 -18 -18 -15 -28 8 -28
26 0 72 23 90 44 9 12 16 13 25 6 9 -8 15 0 24 32 14 55 24 70 42 63 10 -4 15
-21 15 -53 0 -26 3 -57 8 -69 5 -16 3 -23 -5 -23 -16 0 -59 -47 -50 -56 3 -4
-2 -4 -13 0 -42 15 -63 -41 -25 -68 12 -8 18 -19 15 -25 -4 -5 -1 -13 5 -16 7
-5 -1 -20 -22 -41 -35 -36 -52 -44 -43 -19 7 18 -3 20 -20 3 -27 -29 -38 -77
-33 -150 4 -40 6 -74 6 -76 1 -1 30 -32 65 -68 l65 -65 -73 -88 c-41 -48 -85
-97 -99 -108 -24 -19 -25 -24 -20 -79 3 -32 11 -70 18 -84 l13 -24 21 34 c11
19 21 42 21 50 0 8 15 -1 35 -23 36 -38 62 -49 51 -21 -11 30 14 2 50 -53 40
-63 53 -61 60 8 6 48 14 66 14 30 0 -12 4 -19 10 -16 6 3 10 23 10 44 0 41 10
54 49 66 30 9 19 -12 -13 -25 -19 -8 -19 -9 7 -9 40 -1 36 -34 -19 -148 -36
-74 -43 -97 -33 -104 15 -9 29 -3 29 14 0 7 18 47 40 90 21 43 42 93 46 112 3
19 10 35 15 35 11 0 11 -4 -4 -63 -7 -26 -17 -44 -21 -40 -5 4 -5 -3 -1 -16 4
-15 3 -21 -3 -17 -5 3 -12 -1 -15 -9 -5 -11 -1 -12 18 -5 22 8 25 7 25 -13 0
-18 -2 -19 -11 -7 -9 13 -10 13 -6 0 2 -8 -7 -34 -21 -58 -13 -24 -22 -45 -19
-48 3 -3 15 13 27 36 12 23 30 52 40 64 93 107 116 121 140 82 12 -19 12 -20
-3 -7 -15 12 -16 10 -5 -20 9 -26 13 -29 18 -15 3 10 10 18 15 19 6 1 9 6 7
10 -1 5 2 6 8 2 7 -4 7 -13 -1 -28 -7 -17 -5 -15 11 5 58 75 53 71 75 51 11
-10 29 -17 39 -15 14 3 17 0 12 -13 -4 -13 1 -11 19 6 13 13 25 28 25 32 0 12
56 93 101 148 21 25 35 50 31 54 -4 5 -2 5 4 2 7 -4 24 15 42 43 38 61 35 65
-7 8 -35 -48 -41 -41 -10 12 l20 35 -35 -39 c-19 -21 -32 -45 -29 -52 6 -16
-15 -56 -27 -49 -5 3 -15 -5 -23 -17 -7 -13 -31 -52 -52 -88 -21 -36 -40 -67
-41 -69 -2 -2 -18 3 -36 12 -18 9 -36 13 -40 11 -4 -3 -8 -1 -8 4 0 5 -19 15
-42 22 -54 17 -101 40 -110 53 -4 7 -24 7 -63 -2 -31 -7 -59 -11 -61 -8 -3 3
18 10 45 17 28 7 51 16 51 21 0 4 -7 5 -17 2 -12 -5 -14 -3 -8 7 6 10 4 11 -6
4 -21 -13 -83 -34 -88 -29 -2 3 14 13 35 22 70 32 281 238 419 408 48 61 101
125 117 143 27 32 36 53 21 51 -20 -3 -21 3 -4 20 11 11 23 37 26 58 4 21 11
51 16 67 5 16 9 51 9 79 0 27 7 75 15 106 18 69 24 191 13 251 -6 33 -5 48 6
58 12 12 15 11 21 -7 3 -12 10 -19 15 -16 4 3 11 -2 14 -11 3 -8 2 -12 -4 -9
-25 15 -6 -16 38 -62 26 -28 63 -77 81 -108 l35 -57 3 -177 c3 -142 8 -189 24
-243 17 -53 20 -84 16 -158 -2 -50 -7 -94 -11 -97 -7 -7 30 -43 88 -83 53 -36
68 -38 62 -7 -10 46 -56 1522 -56 1790 l0 167 -1295 0 -1295 0 0 -772z m1320
-233 c10 -12 9 -20 -4 -40 -16 -25 -45 -31 -115 -27 -14 1 -32 -4 -40 -11 -12
-10 -14 -9 -8 6 4 10 7 22 7 27 0 4 7 11 16 14 10 4 13 2 8 -7 -7 -11 24 9 36
24 6 7 60 27 76 28 6 1 17 -6 24 -14z m140 -617 c0 -3 -22 -9 -50 -13 -27 -4
-50 -10 -50 -14 0 -4 -8 -7 -19 -7 -17 0 -17 2 -4 23 13 20 23 22 69 20 30 -1
54 -5 54 -9z m-120 -58 c0 -5 -2 -10 -4 -10 -3 0 -8 5 -11 10 -3 6 -1 10 4 10
6 0 11 -4 11 -10z m-67 -517 c-6 -15 -19 -17 -27 -4 -7 11 0 18 18 18 8 0 12
-6 9 -14z m434 -35 c-3 -8 -6 -5 -6 6 -1 11 2 17 5 13 3 -3 4 -12 1 -19z
m-262 -14 c1 -10 5 -30 9 -44 l8 -25 -18 25 c-20 27 -27 73 -11 67 6 -2 11
-12 12 -23z m211 -91 c-3 -4 -6 0 -6 8 0 12 -2 12 -9 0 -6 -9 -8 -5 -8 13 0
27 0 27 14 6 8 -12 12 -24 9 -27z"/>
<path d="M1307 1575 c-4 -8 -2 -17 3 -20 6 -4 10 3 10 14 0 25 -6 27 -13 6z"/>
<path d="M2104 1229 c-157 -240 -187 -289 -181 -295 2 -3 19 18 37 46 18 27
34 50 37 50 5 0 -2 -13 -39 -68 -16 -23 -33 -40 -37 -37 -5 2 -33 -29 -64 -71
-31 -41 -52 -72 -48 -69 5 3 12 -1 15 -7 3 -7 4 -4 3 7 -1 12 3 19 11 17 7 -1
22 8 33 20 24 28 349 516 349 524 0 4 -8 0 -17 -7 -16 -13 -16 -11 0 14 10 16
16 31 13 34 -3 3 -53 -68 -112 -158z m50 36 c-20 -30 -39 -55 -41 -55 -5 0 3
14 39 68 16 23 31 42 34 42 2 0 -12 -25 -32 -55z m-113 -172 c-5 -10 -17 -27
-26 -38 -16 -19 -17 -19 -3 5 26 46 29 50 34 50 3 0 0 -8 -5 -17z m-130 -200
c-5 -10 -24 -34 -41 -53 -26 -29 -25 -26 7 18 37 52 52 67 34 35z"/>
<path d="M2232 1094 c-9 -10 -10 -19 -2 -34 14 -26 24 -26 17 0 -3 11 -1 18 4
14 5 -3 9 -12 9 -20 0 -8 5 -14 10 -14 14 0 12 11 -8 41 -14 23 -19 25 -30 13z"/>
<path d="M2496 1005 c4 -22 14 -58 23 -80 12 -32 16 -91 17 -303 1 -145 -3
-280 -8 -300 -5 -20 -12 -53 -14 -72 -15 -128 -26 -208 -30 -227 -2 -13 0 -23
6 -23 5 0 11 12 11 28 l1 27 8 -30 c7 -30 7 -30 12 -5 14 61 28 161 28 203 0
25 5 58 11 74 14 36 14 549 0 583 -8 22 -10 22 -11 5 l-1 -20 -9 20 c-5 11 -9
27 -9 35 -1 13 0 13 9 0 11 -17 13 -9 4 15 -6 13 -9 14 -16 3 -5 -8 -6 3 -2
28 3 23 2 50 -4 60 -8 15 -10 9 -7 -26 l5 -45 -10 39 c-14 54 -24 61 -14 11z
m65 -212 c2 -29 0 -56 -4 -59 -4 -4 -7 21 -7 56 0 75 7 77 11 3z m-4 -370 c-1
-54 -3 -12 -3 92 0 105 2 149 3 98 2 -51 2 -136 0 -190z m-30 -275 c-3 -8 -6
-5 -6 6 -1 11 2 17 5 13 3 -3 4 -12 1 -19z m-10 -65 c-3 -10 -5 -4 -5 12 0 17
2 24 5 18 2 -7 2 -21 0 -30z"/>
<path d="M1 825 c0 -94 3 -123 10 -106 13 34 14 195 0 217 -8 14 -10 -13 -10
-111z"/>
<path d="M2292 909 c-24 -17 -46 -28 -49 -25 -9 8 -44 -14 -38 -24 3 -5 0 -12
-6 -16 -8 -4 -9 -3 -5 4 4 7 3 12 -2 12 -8 0 -44 -36 -73 -74 -15 -21 193 117
212 140 17 20 9 17 -39 -17z m-112 -73 c0 -2 -8 -10 -17 -17 -16 -13 -17 -12
-4 4 13 16 21 21 21 13z"/>
<path d="M2386 865 c-11 -8 -15 -15 -9 -15 7 0 15 5 18 10 4 6 11 8 16 5 5 -4
9 -1 9 4 0 15 -11 13 -34 -4z"/>
<path d="M2745 540 c0 -254 -6 -354 -31 -507 -3 -20 -1 -33 6 -33 5 0 11 12
11 28 l1 27 7 -30 c7 -27 8 -24 14 25 28 239 35 468 17 544 -6 26 -5 46 2 59
5 11 6 17 1 14 -5 -3 -7 24 -5 61 2 46 0 62 -7 53 -7 -11 -10 -8 -13 15 -2 16
-3 -99 -3 -256z m22 -47 c-3 -10 -5 -2 -5 17 0 19 2 27 5 18 2 -10 2 -26 0
-35z m-20 -355 c-3 -7 -5 -2 -5 12 0 14 2 19 5 13 2 -7 2 -19 0 -25z"/>
<path d="M2246 791 c-10 -11 -23 -18 -30 -15 -25 10 -182 -243 -163 -262 5 -5
77 100 77 112 0 5 16 29 35 53 19 24 32 48 28 54 -3 5 -2 7 4 4 5 -3 27 12 48
33 22 22 34 40 29 40 -6 0 -19 -9 -28 -19z"/>
<path d="M1551 744 c0 -11 3 -14 6 -6 3 7 2 16 -1 19 -3 4 -6 -2 -5 -13z"/>
<path d="M1288 728 c-7 -17 15 -19 29 -3 4 4 3 5 -4 2 -6 -4 -13 -2 -15 5 -3
8 -6 6 -10 -4z"/>
<path d="M2389 707 c-43 -22 -63 -38 -61 -49 1 -9 -2 -19 -8 -23 -6 -3 -7 0
-4 9 3 9 2 16 -3 16 -11 0 -33 -290 -33 -425 0 -55 -4 -85 -9 -76 -12 18 -22
-14 -31 -96 -6 -59 4 -89 13 -40 l4 22 2 -22 c0 -13 5 -23 10 -23 4 0 12 37
16 82 4 45 13 94 20 108 7 15 15 89 19 190 8 173 18 286 28 295 3 4 20 8 36
10 32 4 126 44 105 45 -6 0 -18 2 -25 5 -8 3 -44 -9 -79 -28z m71 13 c-8 -5
-19 -10 -25 -10 -5 0 -3 5 5 10 8 5 20 10 25 10 6 0 3 -5 -5 -10z m-50 -20
c-8 -5 -19 -10 -25 -10 -5 0 -3 5 5 10 8 5 20 10 25 10 6 0 3 -5 -5 -10z m-99
-275 c-6 -112 -8 -124 -10 -59 -1 77 8 208 15 201 2 -1 -1 -65 -5 -142z m-44
-342 c-3 -10 -5 -2 -5 17 0 19 2 27 5 18 2 -10 2 -26 0 -35z"/>
<path d="M1350 681 c0 -5 -3 -18 -6 -28 -6 -16 -5 -16 9 2 19 23 21 35 7 35
-5 0 -10 -4 -10 -9z"/>
<path d="M1701 659 c-5 -13 -16 -42 -25 -63 -9 -22 -15 -41 -13 -43 2 -2 16
24 31 58 15 34 24 64 22 67 -3 3 -10 -6 -15 -19z"/>
<path d="M1912 604 c-15 -26 -33 -53 -40 -60 -7 -8 -10 -14 -5 -14 4 0 0 -5
-9 -11 -10 -5 -18 -17 -18 -25 0 -13 2 -13 13 -2 15 16 97 158 91 158 -2 0
-17 -21 -32 -46z"/>
<path d="M1326 615 c-9 -26 -7 -32 5 -12 6 10 9 21 6 23 -2 3 -7 -2 -11 -11z"/>
<path d="M2790 626 c0 -2 8 -10 18 -17 15 -13 16 -12 3 4 -13 16 -21 21 -21
13z"/>
<path d="M2899 574 c-2 -32 -1 -99 3 -149 4 -49 3 -155 -2 -235 -13 -190 -13
-197 1 -183 15 15 25 584 11 609 -8 14 -11 4 -13 -42z"/>
<path d="M1036 517 c-52 -166 -86 -282 -85 -292 1 -13 84 240 105 319 24 92
11 75 -20 -27z"/>
<path d="M2832 588 c2 -6 15 -18 29 -27 l24 -15 -24 27 c-26 29 -35 34 -29 15z"/>
<path d="M1305 569 c-4 -6 -5 -12 -2 -15 2 -3 7 2 10 11 7 17 1 20 -8 4z"/>
<path d="M2986 567 c3 -10 9 -15 12 -12 3 3 0 11 -7 18 -10 9 -11 8 -5 -6z"/>
<path d="M2981 513 c7 -12 15 -20 18 -17 3 2 -3 12 -13 22 -17 16 -18 16 -5
-5z"/>
<path d="M2028 452 c-10 -30 -20 -70 -23 -90 -5 -32 -2 -28 20 23 14 33 24 73
23 90 -3 27 -5 25 -20 -23z"/>
<path d="M1257 455 c-24 -50 -20 -58 4 -12 11 22 19 41 17 43 -3 2 -12 -12
-21 -31z"/>
<path d="M2091 457 c-1 -11 -6 -15 -12 -11 -9 5 -10 -1 -5 -22 3 -16 9 -47 13
-69 5 -32 8 -36 14 -20 10 27 10 95 -1 120 -8 18 -9 18 -9 2z m6 -69 c-3 -7
-5 -2 -5 12 0 14 2 19 5 13 2 -7 2 -19 0 -25z"/>
<path d="M1226 385 c-9 -26 -7 -32 5 -12 6 10 9 21 6 23 -2 3 -7 -2 -11 -11z"/>
<path d="M1505 363 l-17 -28 23 22 c12 12 20 25 17 28 -3 3 -13 -7 -23 -22z"/>
<path d="M2988 328 c5 -71 10 -77 11 -15 0 31 -2 57 -7 57 -4 0 -6 -19 -4 -42z"/>
<path d="M2600 334 c0 -8 5 -12 10 -9 6 3 10 10 10 16 0 5 -4 9 -10 9 -5 0
-10 -7 -10 -16z"/>
<path d="M2072 295 c0 -46 24 -93 40 -77 7 7 6 17 -4 31 -8 12 -18 18 -22 14
-4 -4 -4 0 -1 8 3 8 2 26 -3 40 -9 21 -10 19 -10 -16z"/>
<path d="M1801 304 c0 -11 3 -14 6 -6 3 7 2 16 -1 19 -3 4 -6 -2 -5 -13z"/>
<path d="M1902 300 c0 -14 2 -19 5 -12 2 6 2 18 0 25 -3 6 -5 1 -5 -13z"/>
<path d="M1186 293 c-6 -14 -5 -15 5 -6 7 7 10 15 7 18 -3 3 -9 -2 -12 -12z"/>
<path d="M2591 284 c0 -11 3 -14 6 -6 3 7 2 16 -1 19 -3 4 -6 -2 -5 -13z"/>
<path d="M2467 265 c-14 -14 -30 -25 -35 -25 -18 0 -83 -70 -76 -81 5 -9 11
-7 20 5 11 16 13 16 23 -1 9 -15 10 -13 5 10 -5 22 -3 28 9 25 8 -2 27 10 41
25 15 16 26 22 27 15 0 -7 5 0 10 16 4 17 7 31 6 33 -2 1 -15 -9 -30 -22z"/>
<path d="M1661 273 c-1 -6 -4 -20 -7 -30 -5 -17 -5 -17 6 0 6 10 9 23 6 30 -3
9 -5 9 -5 0z"/>
<path d="M1785 268 c4 -9 -1 -28 -10 -41 -10 -16 -14 -35 -10 -53 5 -20 4 -25
-3 -16 -12 18 -24 -39 -16 -76 4 -21 3 -24 -5 -12 -9 12 -11 11 -11 -7 0 -13
6 -23 13 -23 19 0 63 218 47 234 -8 8 -10 7 -5 -6z m-28 -160 c-3 -8 -6 -5 -6
6 -1 11 2 17 5 13 3 -3 4 -12 1 -19z"/>
<path d="M2340 269 c0 -5 5 -7 10 -4 6 3 10 8 10 11 0 2 -4 4 -10 4 -5 0 -10
-5 -10 -11z"/>
<path d="M1162 245 c-17 -37 -14 -45 4 -12 9 16 14 31 11 33 -2 2 -9 -7 -15
-21z"/>
<path d="M1881 254 c0 -11 3 -14 6 -6 3 7 2 16 -1 19 -3 4 -6 -2 -5 -13z"/>
<path d="M1912 193 c-1 -39 -6 -83 -11 -96 -10 -24 -8 -25 39 -29 46 -3 50 -1
59 24 9 25 6 38 -10 38 -4 0 -10 -11 -13 -25 -4 -14 -11 -25 -17 -25 -8 0 -9
16 -5 51 4 32 3 49 -3 45 -5 -4 -12 4 -14 16 -4 19 -5 18 -7 -7 -2 -21 -5 -14
-10 25 l-7 55 -1 -72z"/>
<path d="M1441 234 c0 -11 3 -14 6 -6 3 7 2 16 -1 19 -3 4 -6 -2 -5 -13z"/>
<path d="M2251 234 c0 -11 3 -14 6 -6 3 7 2 16 -1 19 -3 4 -6 -2 -5 -13z"/>
<path d="M2210 231 c-51 -27 -61 -31 -74 -31 -8 0 -16 -6 -19 -13 -3 -8 1 -13
11 -11 34 5 62 17 62 26 0 6 8 7 17 4 9 -4 20 -1 25 6 16 27 7 34 -22 19z"/>
<path d="M1632 210 c0 -14 2 -19 5 -12 2 6 2 18 0 25 -3 6 -5 1 -5 -13z"/>
<path d="M2025 210 c-4 -11 -8 -35 -11 -52 -3 -27 -2 -30 10 -17 17 17 28 77
16 84 -5 3 -11 -4 -15 -15z"/>
<path d="M1431 194 c0 -11 3 -14 6 -6 3 7 2 16 -1 19 -3 4 -6 -2 -5 -13z"/>
<path d="M1518 192 c-24 -28 -33 -46 -18 -37 10 6 12 4 7 -9 -11 -27 11 -8 28
24 17 33 5 48 -17 22z m12 -12 c-6 -11 -13 -20 -16 -20 -2 0 0 9 6 20 6 11 13
20 16 20 2 0 0 -9 -6 -20z"/>
<path d="M2605 190 c3 -5 8 -10 11 -10 2 0 4 5 4 10 0 6 -5 10 -11 10 -5 0 -7
-4 -4 -10z"/>
<path d="M2679 179 c-5 -10 -6 -25 -2 -35 4 -12 3 -15 -5 -10 -14 9 -44 -18
-34 -29 4 -5 2 -5 -4 -2 -16 9 -79 -56 -80 -83 -1 -21 0 -21 12 -6 11 16 13
16 23 -1 10 -17 10 -16 11 5 0 28 18 28 30 -1 8 -17 8 -14 4 16 -6 37 10 54
19 20 3 -10 4 1 4 25 0 23 3 45 6 49 4 3 7 -2 7 -12 0 -17 26 25 43 68 8 20
-23 16 -34 -4z m17 -15 c-4 -9 -9 -15 -11 -12 -3 3 -3 13 1 22 4 9 9 15 11 12
3 -3 3 -13 -1 -22z"/>
<path d="M2067 174 c-7 -25 5 -94 18 -97 16 -3 17 76 2 97 -14 20 -15 20 -20
0z"/>
<path d="M1421 154 c0 -11 3 -14 6 -6 3 7 2 16 -1 19 -3 4 -6 -2 -5 -13z"/>
<path d="M2332 140 c9 -26 13 -30 16 -16 2 10 -3 26 -12 35 -15 15 -16 13 -4
-19z"/>
<path d="M1551 109 c-31 -63 -28 -79 13 -79 24 0 36 -5 39 -17 3 -10 4 16 4
57 -2 62 -5 75 -19 78 -12 2 -23 -10 -37 -39z"/>
<path d="M1407 113 c-14 -22 -35 -113 -26 -113 5 0 9 9 9 21 0 11 4 17 10 14
6 -3 7 1 4 9 -3 9 -1 29 4 46 10 28 9 40 -1 23z"/>
<path d="M2461 74 c0 -11 3 -14 6 -6 3 7 2 16 -1 19 -3 4 -6 -2 -5 -13z"/>
<path d="M2692 70 c0 -14 2 -19 5 -12 2 6 2 18 0 25 -3 6 -5 1 -5 -13z"/>
<path d="M905 71 c-3 -5 -1 -12 5 -16 5 -3 10 1 10 9 0 18 -6 21 -15 7z"/>
<path d="M1622 30 c0 -19 2 -27 5 -17 2 9 2 25 0 35 -3 9 -5 1 -5 -18z"/>
<path d="M1833 53 c-7 -3 -13 -16 -13 -29 0 -17 6 -24 20 -24 15 0 20 7 20 24
0 27 -8 36 -27 29z"/>
<path d="M1962 40 c0 -14 2 -19 5 -12 2 6 2 18 0 25 -3 6 -5 1 -5 -13z"/>
<path d="M1177 43 c-4 -3 -7 -16 -6 -27 0 -19 1 -19 10 3 10 24 8 36 -4 24z"/>
<path d="M1481 34 c0 -11 3 -14 6 -6 3 7 2 16 -1 19 -3 4 -6 -2 -5 -13z"/>
<path d="M1881 34 c0 -11 3 -14 6 -6 3 7 2 16 -1 19 -3 4 -6 -2 -5 -13z"/>
<path d="M2401 34 c0 -11 3 -14 6 -6 3 7 2 16 -1 19 -3 4 -6 -2 -5 -13z"/>
<path d="M2670 20 c0 -11 4 -20 9 -20 5 0 7 9 4 20 -3 11 -7 20 -9 20 -2 0 -4
-9 -4 -20z"/>
<path d="M2820 26 c0 -8 4 -17 9 -20 5 -4 7 3 4 14 -6 23 -13 26 -13 6z"/>
</g>
</svg>
