<?xml version="1.0" standalone="no"?>
<!DOCTYPE svg PUBLIC "-//W3C//DTD SVG 20010904//EN"
 "http://www.w3.org/TR/2001/REC-SVG-20010904/DTD/svg10.dtd">
<svg version="1.0" xmlns="http://www.w3.org/2000/svg"
 width="352.000000pt" height="352.000000pt" viewBox="0 0 352.000000 352.000000"
 preserveAspectRatio="xMidYMid meet">
<metadata>
Created by potrace 1.14, written by Peter Selinger 2001-2017
</metadata>
<g transform="translate(0.000000,352.000000) scale(0.100000,-0.100000)"
fill="#000000" stroke="none">
<path d="M2275 3484 c-22 -28 -58 -25 -48 4 3 11 2 13 -4 6 -4 -6 -22 -15 -39
-18 -17 -4 -41 -16 -53 -27 -11 -11 -21 -17 -21 -14 0 3 -9 1 -20 -5 -12 -7
-27 -7 -37 -2 -22 12 -45 4 -36 -11 3 -7 -2 -4 -13 5 -13 11 -24 14 -34 8 -8
-5 -21 -5 -32 1 -13 7 -18 6 -18 -3 0 -10 -2 -10 -8 -1 -10 16 -112 26 -112
11 0 -6 -3 -8 -7 -5 -3 4 -13 1 -22 -7 -9 -8 -20 -15 -26 -15 -19 1 -15 -18 7
-29 l23 -12 -25 2 c-14 1 -35 -3 -46 -10 -12 -6 -23 -10 -25 -9 -2 1 3 -4 11
-11 15 -13 10 -21 -25 -36 -6 -3 -3 -9 5 -15 12 -9 9 -11 -15 -12 -16 -1 -39
-1 -50 0 -17 2 -18 0 -5 -9 11 -7 6 -8 -20 -4 -19 4 -37 8 -39 10 -2 2 -15 -8
-28 -22 -21 -23 -28 -23 -23 1 1 6 -10 -1 -24 -14 -14 -14 -26 -19 -26 -13 0
19 -13 13 -37 -18 -27 -34 -23 -96 6 -84 9 3 22 7 29 7 7 0 10 7 8 14 -3 8 -2
11 3 8 5 -3 13 0 16 6 4 5 14 8 22 5 8 -3 12 -2 9 3 -11 18 81 75 111 69 11
-2 7 -7 -13 -18 -16 -7 -43 -27 -61 -43 -17 -16 -36 -26 -42 -23 -5 4 -14 -1
-19 -9 -5 -9 -15 -17 -23 -18 -8 -2 -25 -10 -39 -20 l-24 -17 33 0 c28 0 32
-3 26 -17 -4 -10 -7 -26 -7 -36 0 -9 -3 -15 -9 -12 -5 4 -9 13 -9 21 0 13 -4
15 -37 18 -7 1 -19 10 -27 21 -13 18 -14 18 -10 -10 l4 -30 -14 30 c-15 33
-10 59 10 51 8 -3 14 1 14 10 0 9 -5 12 -12 8 -9 -5 -9 -2 1 9 20 25 0 20 -32
-8 -16 -14 -25 -30 -21 -37 4 -6 3 -8 -3 -5 -6 4 -18 -2 -27 -12 -15 -16 -22
-18 -48 -9 -32 11 -58 6 -140 -29 -42 -18 -106 -96 -141 -171 -29 -62 -65
-120 -97 -158 -21 -24 -29 -47 -34 -95 -4 -35 -15 -100 -25 -144 -18 -76 -26
-229 -15 -268 8 -26 79 -59 122 -55 29 2 42 11 62 39 14 20 53 70 87 112 34
41 71 94 83 117 12 23 25 38 30 34 5 -5 10 -34 13 -64 4 -62 44 -220 58 -234
5 -6 9 -17 9 -26 0 -18 27 -114 61 -220 12 -36 46 -103 75 -149 30 -46 54 -90
54 -96 0 -11 21 -25 36 -25 2 0 2 23 1 50 -2 28 0 53 5 56 5 3 6 10 3 15 -4 5
0 9 8 9 8 0 17 7 21 15 3 8 1 15 -4 15 -6 0 -10 8 -11 18 0 9 -31 39 -69 67
-79 57 -112 103 -141 195 -23 72 -25 129 -9 191 9 34 18 44 54 60 39 17 48 17
97 5 29 -8 57 -12 62 -9 5 3 18 -4 30 -15 12 -11 33 -23 47 -27 33 -10 70 -44
70 -66 0 -22 16 -33 26 -18 9 15 24 -9 24 -41 0 -14 5 -32 11 -40 7 -11 9 3 6
50 -2 36 -2 59 1 52 2 -6 8 -12 13 -12 10 0 5 123 -6 153 -4 9 -16 17 -26 17
-10 0 -19 5 -19 11 0 6 8 8 19 4 15 -5 21 0 26 24 4 17 4 35 1 40 -4 5 -2 12
4 16 5 3 10 1 10 -5 0 -20 51 28 70 65 14 28 15 35 4 35 -8 0 -14 -5 -14 -12
0 -6 -3 -9 -6 -6 -3 3 4 23 15 44 22 41 19 58 -10 49 -10 -4 -19 -3 -19 2 0
17 16 28 38 28 33 0 28 19 -7 29 -33 10 -40 23 -16 32 13 6 33 76 27 97 -7 25
88 73 107 54 9 -9 14 -9 20 1 6 10 19 11 47 6 21 -5 42 -7 47 -6 4 1 7 -2 7
-8 0 -5 7 -7 15 -4 17 7 21 -21 5 -31 -5 -3 -10 -10 -10 -14 0 -4 21 12 47 36
26 23 51 43 56 43 5 0 19 8 32 18 12 9 33 24 45 32 12 8 28 20 34 26 29 28 58
34 126 29 52 -4 78 -1 100 10 36 19 40 19 40 0 0 -11 9 -14 39 -11 24 2 48 -2
60 -11 19 -13 21 -12 21 6 0 12 5 21 11 21 5 0 7 5 3 11 -4 8 1 9 17 4 20 -7
22 -5 13 6 -7 8 -11 32 -10 54 2 37 4 40 33 40 26 0 29 2 19 17 -13 21 -37 23
-54 6 -9 -9 -12 -9 -12 0 0 7 -12 17 -26 22 -14 6 -23 14 -19 19 3 6 -3 14
-12 20 -17 10 -17 10 2 11 l20 1 -20 8 c-11 5 -23 4 -26 -1 -4 -6 -9 -6 -13 1
-4 6 -13 11 -19 11 -9 0 -8 -3 1 -8 16 -11 24 -50 11 -57 -5 -4 -9 1 -9 9 0 9
-4 16 -10 16 -5 0 -10 7 -10 15 0 9 -14 22 -30 29 -38 15 -29 26 24 27 23 1
32 4 22 6 -11 3 -25 11 -33 18 -7 8 -29 12 -49 11 -26 -3 -37 1 -42 13 -8 23
-23 31 -57 31 -27 -1 -28 -2 -10 -12 25 -13 45 -38 45 -54 0 -17 -60 -10 -71
8 -6 9 -9 9 -9 1 0 -6 -9 -9 -20 -6 -11 3 -17 9 -14 14 3 5 -3 9 -13 9 -12 0
-8 6 15 20 34 21 34 21 14 38 -16 15 -18 21 -9 37 9 16 20 77 13 74 0 0 -10
-12 -21 -25z m-75 -88 c0 -2 -7 -7 -16 -10 -8 -3 -12 -2 -9 4 6 10 25 14 25 6z
m-420 -88 c11 3 12 1 4 -7 -12 -13 -64 -5 -64 10 0 5 10 5 23 0 12 -4 29 -6
37 -3z m460 2 c0 -5 -5 -10 -11 -10 -5 0 -7 5 -4 10 3 6 8 10 11 10 2 0 4 -4
4 -10z m185 -4 c7 3 16 1 20 -5 3 -6 2 -11 -4 -11 -5 0 -16 -2 -23 -5 -9 -4
-14 2 -15 17 0 13 1 18 4 11 2 -7 10 -10 18 -7z m-24 -76 c28 -16 23 -30 -6
-17 -14 7 -25 15 -25 20 0 10 8 9 31 -3z m-1181 -254 c0 -3 -4 -8 -10 -11 -5
-3 -10 -1 -10 4 0 6 5 11 10 11 6 0 10 -2 10 -4z m-27 -41 c-3 -9 -8 -14 -10
-11 -3 3 -2 9 2 15 9 16 15 13 8 -4z m547 -175 c0 -5 -2 -10 -4 -10 -3 0 -8 5
-11 10 -3 6 -1 10 4 10 6 0 11 -4 11 -10z m-17 -95 c-22 -17 -30 -11 -13 10 7
8 17 12 22 9 5 -3 1 -12 -9 -19z m-843 -109 c0 -11 -19 -15 -25 -6 -3 5 1 10
9 10 9 0 16 -2 16 -4z"/>
<path d="M1550 3347 c0 -8 -8 -18 -17 -22 -15 -5 -12 -9 16 -21 38 -16 53 -18
31 -4 -11 7 -9 11 14 19 35 14 29 35 -12 39 -23 2 -32 -1 -32 -11z"/>
<path d="M2538 3283 c6 -2 18 -2 25 0 6 3 1 5 -13 5 -14 0 -19 -2 -12 -5z"/>
<path d="M2347 2601 c-41 -24 -29 -42 38 -60 80 -22 88 -28 80 -58 -4 -16 -2
-22 5 -18 5 3 10 14 10 24 0 9 5 22 11 28 12 12 12 12 -33 64 -29 33 -74 42
-111 20z"/>
<path d="M2733 2583 c-7 -2 -13 -9 -13 -15 0 -6 -11 -21 -25 -34 -28 -26 -33
-47 -10 -38 8 4 15 1 15 -5 0 -6 -5 -11 -11 -11 -5 0 -8 -4 -5 -9 4 -5 0 -12
-6 -14 -7 -3 1 -6 17 -6 17 -1 37 -6 45 -11 12 -7 11 -10 -7 -17 -27 -10 -18
-24 25 -40 30 -11 32 -10 38 13 11 44 22 25 13 -23 -8 -41 -6 -51 11 -73 11
-14 36 -56 55 -95 51 -102 49 -136 -26 -415 -11 -42 -17 -84 -14 -95 5 -14 4
-16 -3 -7 -7 11 -11 7 -14 -13 -6 -27 20 -62 60 -84 16 -9 43 -53 56 -95 6
-18 8 -18 34 5 15 13 41 34 58 46 31 21 31 21 74 2 66 -30 198 -60 243 -57 59
4 92 54 113 173 9 50 27 111 40 136 21 42 22 53 14 105 -5 32 -14 62 -20 68
-6 6 -63 13 -126 16 -133 6 -138 9 -174 115 -23 69 -26 135 -15 291 6 90 5
113 -6 120 -8 5 -63 10 -124 10 -60 1 -124 5 -141 9 -22 5 -35 2 -47 -10 -20
-19 -23 -91 -4 -98 6 -3 3 -6 -8 -6 -24 -1 -40 9 -47 30 -3 8 -26 21 -49 29
l-44 13 48 15 c51 17 60 37 29 65 -19 17 -28 19 -49 10z m375 -775 c17 -17 15
-84 -4 -113 -37 -57 -104 -4 -89 71 8 48 63 72 93 42z"/>
<path d="M2320 2500 c-80 -10 -154 -37 -181 -66 l-23 -25 44 7 c25 3 52 15 60
25 21 25 70 43 70 25 0 -16 17 -31 48 -40 18 -6 22 -3 23 16 l0 23 11 -22 c12
-26 54 -33 44 -8 -3 9 0 15 9 15 8 0 15 5 15 10 0 15 -38 50 -52 49 -7 -1 -38
-5 -68 -9z m20 -35 c0 -8 -6 -15 -14 -15 -8 0 -16 7 -20 15 -4 10 1 15 14 15
11 0 20 -7 20 -15z"/>
<path d="M452 2434 c-57 -39 -106 -168 -126 -329 -8 -66 -24 -145 -34 -176
-29 -82 -35 -131 -20 -151 16 -21 173 -36 198 -19 23 16 20 210 -4 274 -18 47
-18 49 2 115 18 56 21 86 18 180 -2 62 -6 115 -8 117 -2 3 -14 -2 -26 -11z"/>
<path d="M1321 2278 c-10 -26 4 -37 22 -19 15 15 50 14 65 -1 9 -9 12 -9 12
-1 0 17 -41 43 -68 43 -14 0 -26 -8 -31 -22z"/>
<path d="M1442 2198 c-7 -7 -12 -22 -12 -35 0 -18 6 -23 25 -23 26 0 29 9 19
48 -7 25 -15 27 -32 10z"/>
<path d="M2454 2178 c-9 -14 52 -68 77 -68 9 0 22 -7 29 -15 7 -8 18 -15 24
-14 40 5 48 -1 43 -31 -4 -16 -2 -32 3 -35 6 -3 10 3 10 15 0 16 4 20 19 15
14 -4 21 0 24 12 4 14 5 14 6 -4 1 -27 14 -35 59 -39 27 -2 32 0 22 7 -12 8
-12 12 -2 16 9 3 7 11 -7 29 -11 14 -17 32 -15 39 7 17 -45 51 -92 59 -20 4
-47 1 -67 -8 -41 -17 -84 -10 -98 15 -11 22 -25 24 -35 7z"/>
<path d="M1502 2130 c0 -19 2 -27 5 -17 2 9 2 25 0 35 -3 9 -5 1 -5 -18z"/>
<path d="M1652 2100 c0 -14 2 -19 5 -12 2 6 2 18 0 25 -3 6 -5 1 -5 -13z"/>
<path d="M2334 1965 c-4 -8 -12 -15 -20 -15 -20 0 -34 -34 -34 -82 1 -36 3
-40 13 -27 15 20 57 34 57 20 0 -6 -4 -11 -10 -11 -19 0 -10 -16 18 -32 19
-11 34 -13 50 -7 16 6 40 3 80 -11 69 -24 122 -26 122 -5 0 22 28 18 40 -6 14
-26 40 -21 51 9 5 14 5 21 0 17 -5 -3 -12 -1 -16 5 -3 5 -21 10 -40 10 -19 0
-37 5 -40 10 -3 6 -17 10 -31 10 -13 0 -24 5 -24 12 0 6 -8 4 -19 -6 -15 -14
-24 -15 -40 -6 -13 6 -28 7 -38 2 -10 -4 -34 -8 -53 -8 -28 1 -36 5 -38 24 -3
18 1 22 22 22 14 0 28 5 31 10 3 6 19 10 34 10 16 0 34 7 41 15 15 18 16 18
-44 0 -56 -17 -80 -19 -72 -6 11 16 -5 40 -22 34 -11 -5 -14 -2 -9 10 3 9 4
17 1 17 -2 0 -7 -7 -10 -15z"/>
<path d="M1708 1937 c-3 -19 -2 -25 4 -19 6 6 8 18 6 28 -3 14 -5 12 -10 -9z"/>
<path d="M997 1922 c-40 -13 -56 -14 -93 -4 -67 18 -75 16 -127 -34 -39 -37
-54 -45 -75 -41 -16 3 -43 -4 -71 -18 -26 -13 -61 -29 -79 -35 -35 -13 -38
-33 -7 -39 11 -2 30 -10 43 -19 22 -14 23 -18 18 -116 -3 -56 -6 -184 -7 -286
-1 -154 2 -193 17 -234 l17 -49 -26 -51 c-18 -35 -28 -74 -31 -123 -6 -72 -6
-73 18 -73 14 0 28 -4 31 -10 6 -9 -8 -14 -27 -11 -5 0 -8 -6 -8 -14 0 -8 -6
-15 -13 -15 -18 0 -81 -67 -101 -107 -9 -18 -14 -33 -11 -33 3 0 32 26 63 58
72 72 92 88 179 144 90 59 96 78 38 121 -68 50 -105 146 -105 274 0 44 4 58
26 79 22 23 30 25 62 18 83 -18 125 0 137 58 7 30 19 38 93 57 48 13 101 56
133 107 18 29 20 44 14 89 -7 56 -26 106 -53 137 -18 22 -9 48 17 48 32 0 53
40 42 78 -11 36 -33 62 -53 61 -7 0 -35 -8 -61 -17z"/>
<path d="M2812 1920 c-15 -24 -38 -26 -46 -4 -9 24 -18 10 -22 -35 -3 -35 -2
-39 16 -34 17 5 20 0 20 -26 0 -45 18 -38 42 15 15 35 18 54 12 76 -9 28 -9
28 -22 8z"/>
<path d="M1592 1900 c0 -14 2 -19 5 -12 2 6 2 18 0 25 -3 6 -5 1 -5 -13z"/>
<path d="M1760 1900 c0 -5 7 -7 15 -4 8 4 15 8 15 10 0 2 -7 4 -15 4 -8 0 -15
-4 -15 -10z"/>
<path d="M1164 1885 c-4 -9 -2 -33 4 -53 18 -59 24 -103 26 -168 1 -48 7 -69
28 -101 15 -23 30 -53 34 -68 4 -17 29 -43 68 -72 33 -24 69 -51 80 -60 15
-12 20 -13 27 -2 17 29 21 117 7 166 -10 34 -12 54 -4 65 7 12 4 26 -16 55
-14 21 -31 55 -38 76 -8 20 -18 37 -23 37 -9 0 -6 -18 8 -53 5 -11 -5 -6 -23
13 -17 16 -32 40 -34 51 -2 13 -18 30 -38 40 -22 12 -39 30 -46 51 -13 37 -50
51 -60 23z"/>
<path d="M1576 1861 c-3 -4 -20 -12 -38 -16 -18 -4 -27 -9 -20 -12 6 -2 12
-11 12 -19 0 -27 23 -9 51 39 10 17 5 25 -5 8z"/>
<path d="M1661 1852 c-14 -27 10 -210 29 -222 4 -3 17 -32 28 -65 11 -33 28
-64 39 -70 34 -19 72 -65 66 -81 -3 -9 3 -23 16 -35 11 -11 21 -28 21 -38 0
-21 36 -61 55 -61 8 0 15 -7 15 -15 0 -8 5 -15 11 -15 15 0 117 -108 125 -132
3 -10 10 -18 15 -18 18 0 51 -42 44 -58 -5 -14 -4 -14 13 1 13 12 36 17 80 17
64 0 82 11 61 36 -15 18 2 33 78 70 29 13 64 36 78 50 27 27 40 24 47 -10 2
-14 32 -27 133 -57 134 -41 228 -59 400 -80 167 -20 181 -23 216 -52 19 -16
63 -49 98 -75 35 -26 72 -53 82 -60 14 -11 17 -11 15 0 -1 7 -5 19 -9 26 -5 6
-6 12 -3 12 6 0 -74 162 -84 170 -3 3 -14 23 -24 45 -43 93 -151 201 -253 252
-63 31 -79 35 -119 29 -30 -4 -52 -14 -65 -28 -15 -19 -20 -20 -28 -9 -5 7
-14 10 -21 6 -7 -4 -13 1 -17 14 l-5 21 -30 -21 c-26 -19 -33 -20 -53 -9 -13
7 -37 10 -53 7 -18 -4 -37 -1 -48 8 -11 8 -28 15 -40 15 -24 0 -74 22 -74 33
0 4 -7 7 -16 7 -10 0 -14 -6 -10 -15 3 -8 1 -15 -4 -15 -6 0 -10 6 -10 14 0 7
-7 19 -15 26 -9 7 -14 19 -11 26 3 7 -5 16 -17 20 -29 9 -72 43 -72 57 0 7 -5
19 -10 27 -5 8 -10 29 -10 45 0 27 -4 31 -44 41 -24 5 -48 17 -55 25 -6 9 -24
23 -41 32 -20 11 -24 16 -12 17 9 0 17 7 17 15 0 19 -9 19 -34 0 -22 -17 -91
-21 -81 -5 3 6 -4 11 -17 11 -75 5 -98 3 -98 -8 0 -14 -39 -38 -48 -29 -3 3 0
6 6 6 6 0 9 7 6 15 -4 8 -1 15 5 15 6 0 11 7 11 15 0 20 -8 19 -55 -5 -41 -21
-58 -13 -35 15 10 12 9 16 -6 21 -11 3 -27 10 -36 15 -10 5 -19 5 -23 -1 -3
-5 4 -14 15 -20 11 -6 18 -15 14 -21 -3 -5 0 -17 7 -25 11 -14 10 -15 -11 -12
-14 1 -25 10 -25 18 0 8 -9 17 -20 20 -12 4 -20 15 -20 27 -1 29 -10 36 -45
39 -20 1 -33 -4 -39 -14z m1269 -581 c0 -73 -23 -97 -34 -36 -8 43 0 75 20 75
10 0 14 -12 14 -39z"/>
<path d="M2780 1600 c0 -16 5 -30 11 -30 5 0 9 8 7 18 -1 9 1 23 5 30 5 8 3
12 -7 12 -11 0 -16 -9 -16 -30z"/>
<path d="M2801 1454 c0 -11 3 -14 6 -6 3 7 2 16 -1 19 -3 4 -6 -2 -5 -13z"/>
<path d="M2820 1410 c0 -5 9 -10 20 -10 11 0 20 5 20 10 0 6 -9 10 -20 10 -11
0 -20 -4 -20 -10z"/>
<path d="M843 1274 c-7 -19 15 -62 39 -75 37 -20 83 23 60 57 -21 32 -89 45
-99 18z"/>
<path d="M1138 1264 c-16 -8 -28 -23 -28 -34 0 -17 63 -67 67 -52 1 4 4 19 7
33 3 16 15 29 27 32 12 3 19 12 17 19 -6 18 -58 19 -90 2z"/>
<path d="M2488 1048 c9 -67 7 -209 -3 -270 -5 -32 -4 -48 3 -48 20 0 26 25 23
86 -2 42 2 72 13 92 14 27 14 32 1 46 -19 18 -19 50 -1 69 12 12 11 18 -6 45
-29 46 -38 39 -30 -20z"/>
<path d="M855 958 c-8 -10 -14 -22 -12 -27 1 -4 -9 -18 -23 -30 -14 -13 -4 -8
23 9 43 28 65 51 35 35 -7 -4 -2 2 12 14 25 20 25 20 3 18 -12 0 -29 -9 -38
-19z"/>
<path d="M0 718 c0 -200 3 -258 13 -267 10 -7 17 -7 24 0 7 7 17 8 29 1 35
-17 42 -5 28 48 -7 28 -20 60 -28 72 -20 28 -20 42 -1 34 9 -3 15 0 15 8 0 8
-9 16 -20 19 -24 6 -26 38 -8 134 10 56 9 70 -7 116 -42 120 -45 111 -45 -165z"/>
<path d="M2025 690 c-4 -6 3 -10 14 -10 25 0 27 6 6 13 -8 4 -17 2 -20 -3z"/>
<path d="M130 650 c0 -5 -9 -10 -20 -10 -24 0 -25 -13 -4 -45 10 -15 14 -34
10 -49 -7 -28 18 -56 35 -39 13 13 85 -11 81 -26 -1 -6 2 -11 7 -11 5 0 11 -8
13 -17 3 -10 5 5 6 33 1 46 -2 54 -34 85 -20 19 -42 46 -50 62 -14 26 -44 38
-44 17z"/>
<path d="M2863 634 c-15 -7 -5 -34 12 -34 11 0 25 20 25 36 0 5 -21 4 -37 -2z"/>
<path d="M3051 510 c-25 -30 -40 -57 -37 -65 9 -24 19 -18 49 28 15 23 35 52
44 65 13 19 13 22 1 22 -8 0 -34 -23 -57 -50z"/>
<path d="M2755 402 c-9 -52 -21 -70 -37 -54 -13 13 -58 17 -58 4 0 -4 34 -32
75 -61 69 -50 175 -152 175 -169 0 -17 160 -122 185 -122 24 0 25 1 11 16 -9
8 -19 26 -22 40 -6 24 -11 27 -49 26 -17 -1 -18 0 -2 4 30 9 16 39 -17 36 -16
-2 -36 0 -45 4 -9 4 -19 8 -24 8 -15 2 -36 57 -32 86 2 20 -1 30 -10 30 -7 0
-15 9 -18 20 -3 11 -17 22 -33 25 -66 14 -84 39 -65 91 11 30 11 38 0 45 -23
14 -27 11 -34 -29z m275 -342 c0 -5 -2 -10 -4 -10 -3 0 -8 5 -11 10 -3 6 -1
10 4 10 6 0 11 -4 11 -10z"/>
<path d="M3254 423 c-76 -69 -161 -202 -135 -211 6 -2 11 -10 11 -18 0 -17 5
-17 30 -4 16 9 21 6 26 -15 l6 -25 29 21 c22 15 27 17 23 5 -4 -11 -1 -16 10
-16 23 0 14 44 -9 49 -57 11 -60 70 -6 137 52 66 66 94 48 94 -8 0 -23 -8 -33
-17z"/>
<path d="M3457 340 c-25 -16 -70 -51 -98 -78 l-52 -49 37 -49 c21 -27 40 -61
43 -76 3 -16 10 -28 15 -28 6 0 8 14 4 33 -5 28 -3 33 14 34 24 2 40 -31 40
-82 0 -44 16 -54 24 -15 3 18 12 30 21 30 13 0 15 23 15 155 0 85 -4 155 -8
155 -4 0 -29 -13 -55 -30z"/>
<path d="M2921 318 c-11 -18 -11 -20 4 -15 9 4 14 3 11 -2 -3 -5 0 -14 8 -20
22 -19 31 19 9 41 -18 17 -19 17 -32 -4z"/>
</g>
</svg>
